<svg width="27" height="27" viewBox="0 0 27 27" fill="none" xmlns="http://www.w3.org/2000/svg">
<path fill-rule="evenodd" clip-rule="evenodd" d="M1.6875 13.5C1.6875 13.2763 1.77639 13.0616 1.93463 12.9034C2.09286 12.7452 2.30747 12.6563 2.53125 12.6563H22.4319L17.1214 7.3474C16.9629 7.18897 16.8739 6.97409 16.8739 6.75003C16.8739 6.52597 16.9629 6.31109 17.1214 6.15265C17.2798 5.99422 17.4947 5.90521 17.7188 5.90521C17.9428 5.90521 18.1577 5.99422 18.3161 6.15265L25.0661 12.9027C25.1447 12.981 25.207 13.0741 25.2496 13.1766C25.2921 13.2792 25.314 13.389 25.314 13.5C25.314 13.611 25.2921 13.7209 25.2496 13.8234C25.207 13.9259 25.1447 14.019 25.0661 14.0974L18.3161 20.8474C18.1577 21.0058 17.9428 21.0948 17.7188 21.0948C17.4947 21.0948 17.2798 21.0058 17.1214 20.8474C16.9629 20.689 16.8739 20.4741 16.8739 20.25C16.8739 20.026 16.9629 19.8111 17.1214 19.6527L22.4319 14.3438H2.53125C2.30747 14.3438 2.09286 14.2549 1.93463 14.0966C1.77639 13.9384 1.6875 13.7238 1.6875 13.5Z" fill="#7C7CDF"/>
</svg>
