<svg width="25" height="24" viewBox="0 0 25 24" fill="none" xmlns="http://www.w3.org/2000/svg">
<path fill-rule="evenodd" clip-rule="evenodd" d="M7.94019 2C7.14454 2 6.38147 2.31607 5.81887 2.87868C5.25626 3.44129 4.94019 4.20435 4.94019 5V19C4.94019 19.7956 5.25626 20.5587 5.81887 21.1213C6.38147 21.6839 7.14454 22 7.94019 22H17.9402C18.7358 22 19.4989 21.6839 20.0615 21.1213C20.6241 20.5587 20.9402 19.7956 20.9402 19V5C20.9402 4.20435 20.6241 3.44129 20.0615 2.87868C19.4989 2.31607 18.7358 2 17.9402 2H7.94019ZM7.94019 6C7.94019 5.73478 8.04554 5.48043 8.23308 5.29289C8.42062 5.10536 8.67497 5 8.94019 5H16.9402C17.2054 5 17.4598 5.10536 17.6473 5.29289C17.8348 5.48043 17.9402 5.73478 17.9402 6V10C17.9402 10.2652 17.8348 10.5196 17.6473 10.7071C17.4598 10.8946 17.2054 11 16.9402 11H8.94019C8.67497 11 8.42062 10.8946 8.23308 10.7071C8.04554 10.5196 7.94019 10.2652 7.94019 10V6ZM8.94019 13C8.67497 13 8.42062 13.1054 8.23308 13.2929C8.04554 13.4804 7.94019 13.7348 7.94019 14C7.94019 14.2652 8.04554 14.5196 8.23308 14.7071C8.42062 14.8946 8.67497 15 8.94019 15H8.95019C9.2154 15 9.46976 14.8946 9.65729 14.7071C9.84483 14.5196 9.95019 14.2652 9.95019 14C9.95019 13.7348 9.84483 13.4804 9.65729 13.2929C9.46976 13.1054 9.2154 13 8.95019 13H8.94019ZM11.9402 14C11.9402 13.7348 12.0455 13.4804 12.2331 13.2929C12.4206 13.1054 12.675 13 12.9402 13H12.9502C13.2154 13 13.4698 13.1054 13.6573 13.2929C13.8448 13.4804 13.9502 13.7348 13.9502 14C13.9502 14.2652 13.8448 14.5196 13.6573 14.7071C13.4698 14.8946 13.2154 15 12.9502 15H12.9402C12.675 15 12.4206 14.8946 12.2331 14.7071C12.0455 14.5196 11.9402 14.2652 11.9402 14ZM12.9402 16C12.675 16 12.4206 16.1054 12.2331 16.2929C12.0455 16.4804 11.9402 16.7348 11.9402 17C11.9402 17.2652 12.0455 17.5196 12.2331 17.7071C12.4206 17.8946 12.675 18 12.9402 18H12.9502C13.2154 18 13.4698 17.8946 13.6573 17.7071C13.8448 17.5196 13.9502 17.2652 13.9502 17C13.9502 16.7348 13.8448 16.4804 13.6573 16.2929C13.4698 16.1054 13.2154 16 12.9502 16H12.9402ZM7.94019 17C7.94019 16.7348 8.04554 16.4804 8.23308 16.2929C8.42062 16.1054 8.67497 16 8.94019 16H8.95019C9.2154 16 9.46976 16.1054 9.65729 16.2929C9.84483 16.4804 9.95019 16.7348 9.95019 17C9.95019 17.2652 9.84483 17.5196 9.65729 17.7071C9.46976 17.8946 9.2154 18 8.95019 18H8.94019C8.67497 18 8.42062 17.8946 8.23308 17.7071C8.04554 17.5196 7.94019 17.2652 7.94019 17ZM17.9402 14C17.9402 13.7348 17.8348 13.4804 17.6473 13.2929C17.4598 13.1054 17.2054 13 16.9402 13C16.675 13 16.4206 13.1054 16.2331 13.2929C16.0455 13.4804 15.9402 13.7348 15.9402 14V17C15.9402 17.2652 16.0455 17.5196 16.2331 17.7071C16.4206 17.8946 16.675 18 16.9402 18C17.2054 18 17.4598 17.8946 17.6473 17.7071C17.8348 17.5196 17.9402 17.2652 17.9402 17V14Z" fill="white"/>
</svg>
