<svg width="15" height="19" viewBox="0 0 15 19" fill="none" xmlns="http://www.w3.org/2000/svg">
<g clip-path="url(#clip0_3_25)">
<path d="M2.375 0C1.06504 0 0 1.06504 0 2.375V16.625C0 17.935 1.06504 19 2.375 19H11.875C13.185 19 14.25 17.935 14.25 16.625V2.375C14.25 1.06504 13.185 0 11.875 0H2.375ZM3.5625 2.375H10.6875C11.3443 2.375 11.875 2.90566 11.875 3.5625V4.75C11.875 5.40684 11.3443 5.9375 10.6875 5.9375H3.5625C2.90566 5.9375 2.375 5.40684 2.375 4.75V3.5625C2.375 2.90566 2.90566 2.375 3.5625 2.375ZM4.75 8.3125C4.75 8.62744 4.62489 8.92949 4.40219 9.15219C4.17949 9.37489 3.87744 9.5 3.5625 9.5C3.24756 9.5 2.94551 9.37489 2.72281 9.15219C2.50011 8.92949 2.375 8.62744 2.375 8.3125C2.375 7.99756 2.50011 7.69551 2.72281 7.47281C2.94551 7.25011 3.24756 7.125 3.5625 7.125C3.87744 7.125 4.17949 7.25011 4.40219 7.47281C4.62489 7.69551 4.75 7.99756 4.75 8.3125ZM3.5625 13.0625C3.24756 13.0625 2.94551 12.9374 2.72281 12.7147C2.50011 12.492 2.375 12.1899 2.375 11.875C2.375 11.5601 2.50011 11.258 2.72281 11.0353C2.94551 10.8126 3.24756 10.6875 3.5625 10.6875C3.87744 10.6875 4.17949 10.8126 4.40219 11.0353C4.62489 11.258 4.75 11.5601 4.75 11.875C4.75 12.1899 4.62489 12.492 4.40219 12.7147C4.17949 12.9374 3.87744 13.0625 3.5625 13.0625ZM2.375 15.4375C2.375 14.7807 2.90566 14.25 3.5625 14.25H7.125C7.78184 14.25 8.3125 14.7807 8.3125 15.4375C8.3125 16.0943 7.78184 16.625 7.125 16.625H3.5625C2.90566 16.625 2.375 16.0943 2.375 15.4375ZM7.125 9.5C6.81006 9.5 6.50801 9.37489 6.28531 9.15219C6.06261 8.92949 5.9375 8.62744 5.9375 8.3125C5.9375 7.99756 6.06261 7.69551 6.28531 7.47281C6.50801 7.25011 6.81006 7.125 7.125 7.125C7.43994 7.125 7.74199 7.25011 7.96469 7.47281C8.18739 7.69551 8.3125 7.99756 8.3125 8.3125C8.3125 8.62744 8.18739 8.92949 7.96469 9.15219C7.74199 9.37489 7.43994 9.5 7.125 9.5ZM8.3125 11.875C8.3125 12.1899 8.18739 12.492 7.96469 12.7147C7.74199 12.9374 7.43994 13.0625 7.125 13.0625C6.81006 13.0625 6.50801 12.9374 6.28531 12.7147C6.06261 12.492 5.9375 12.1899 5.9375 11.875C5.9375 11.5601 6.06261 11.258 6.28531 11.0353C6.50801 10.8126 6.81006 10.6875 7.125 10.6875C7.43994 10.6875 7.74199 10.8126 7.96469 11.0353C8.18739 11.258 8.3125 11.5601 8.3125 11.875ZM10.6875 9.5C10.3726 9.5 10.0705 9.37489 9.84781 9.15219C9.62511 8.92949 9.5 8.62744 9.5 8.3125C9.5 7.99756 9.62511 7.69551 9.84781 7.47281C10.0705 7.25011 10.3726 7.125 10.6875 7.125C11.0024 7.125 11.3045 7.25011 11.5272 7.47281C11.7499 7.69551 11.875 7.99756 11.875 8.3125C11.875 8.62744 11.7499 8.92949 11.5272 9.15219C11.3045 9.37489 11.0024 9.5 10.6875 9.5ZM11.875 11.875C11.875 12.1899 11.7499 12.492 11.5272 12.7147C11.3045 12.9374 11.0024 13.0625 10.6875 13.0625C10.3726 13.0625 10.0705 12.9374 9.84781 12.7147C9.62511 12.492 9.5 12.1899 9.5 11.875C9.5 11.5601 9.62511 11.258 9.84781 11.0353C10.0705 10.8126 10.3726 10.6875 10.6875 10.6875C11.0024 10.6875 11.3045 10.8126 11.5272 11.0353C11.7499 11.258 11.875 11.5601 11.875 11.875ZM10.6875 16.625C10.3726 16.625 10.0705 16.4999 9.84781 16.2772C9.62511 16.0545 9.5 15.7524 9.5 15.4375C9.5 15.1226 9.62511 14.8205 9.84781 14.5978C10.0705 14.3751 10.3726 14.25 10.6875 14.25C11.0024 14.25 11.3045 14.3751 11.5272 14.5978C11.7499 14.8205 11.875 15.1226 11.875 15.4375C11.875 15.7524 11.7499 16.0545 11.5272 16.2772C11.3045 16.4999 11.0024 16.625 10.6875 16.625Z" fill="white"/>
</g>
<defs>
<clipPath id="clip0_3_25">
<rect width="14.25" height="19" fill="white"/>
</clipPath>
</defs>
</svg>
