<svg width="21" height="19" viewBox="0 0 21 19" fill="none" xmlns="http://www.w3.org/2000/svg">
<path d="M14.3152 12.125L15.0902 9.325C15.1569 9.125 15.1526 8.925 15.0772 8.725C15.0019 8.525 14.8729 8.35833 14.6902 8.225L12.3152 6.6C12.1819 6.5 12.0359 6.47933 11.8772 6.538C11.7186 6.59666 11.6146 6.709 11.5652 6.875L10.7902 9.675C10.7236 9.875 10.7279 10.075 10.8032 10.275C10.8786 10.475 11.0076 10.6417 11.1902 10.775L13.5652 12.4C13.6986 12.5 13.8442 12.521 14.0022 12.463C14.1602 12.405 14.2646 12.2923 14.3152 12.125ZM2.94022 16.825L2.11522 16.425C1.59855 16.2083 1.24855 15.8373 1.06522 15.312C0.881884 14.7867 0.906884 14.266 1.14022 13.75L2.94022 9.85V16.825ZM6.94022 19C6.39022 19 5.91922 18.8 5.52722 18.4C5.13522 18 4.93955 17.525 4.94022 16.975V11L7.61522 18.35C7.66522 18.4667 7.70688 18.5793 7.74022 18.688C7.77355 18.7967 7.83188 18.9007 7.91522 19H6.94022ZM12.0902 18.875C11.5736 19.0583 11.0569 19.0333 10.5402 18.8C10.0236 18.5667 9.67355 18.1917 9.49022 17.675L5.06522 5.45C4.88188 4.93333 4.90688 4.42066 5.14022 3.912C5.37355 3.40333 5.74855 3.05766 6.26522 2.875L13.7902 0.124998C14.3069 -0.0583356 14.8196 -0.0333355 15.3282 0.199998C15.8369 0.433331 16.1826 0.808331 16.3652 1.325L20.8152 13.55C20.9986 14.0667 20.9736 14.5793 20.7402 15.088C20.5069 15.5967 20.1319 15.9423 19.6152 16.125L12.0902 18.875Z" fill="white"/>
</svg>
