<svg width="32" height="32" viewBox="0 0 32 32" fill="none" xmlns="http://www.w3.org/2000/svg">
<path d="M16 29.3333C23.364 29.3333 29.3333 23.364 29.3333 16C29.3333 8.636 23.364 2.66666 16 2.66666C8.63599 2.66666 2.66666 8.636 2.66666 16C2.66666 23.364 8.63599 29.3333 16 29.3333Z" stroke="#8B8B98" stroke-width="2" stroke-linecap="round" stroke-linejoin="round"/>
<path d="M19.1107 25.3333V22.8493C19.144 22.436 19.0867 22.0227 18.9427 21.632C18.7977 21.2411 18.5703 20.8859 18.276 20.5907C21.0667 20.288 24 19.2573 24 14.532C23.9974 13.3174 23.5187 12.1522 22.6667 11.2867C23.0722 10.2308 23.0434 9.05739 22.5867 8.02267C22.5867 8.02267 21.5373 7.72 19.1107 9.304C17.0717 8.76648 14.9283 8.76648 12.8893 9.304C10.4627 7.72 9.41333 8.024 9.41333 8.024C8.95729 9.05795 8.92853 10.2303 9.33333 11.2853C8.47534 12.1573 7.99618 13.3327 7.99999 14.556C7.99999 19.248 10.9333 20.2773 13.724 20.6147C13.4329 20.9074 13.2074 21.2587 13.0627 21.6453C12.919 22.0291 12.8598 22.4393 12.8893 22.848V25.3333" stroke="#8B8B98" stroke-width="2" stroke-linecap="round" stroke-linejoin="round"/>
<path d="M12.8893 23.6027C10.2227 24.444 7.99999 23.6027 6.66666 21.0053" stroke="#8B8B98" stroke-width="2" stroke-linecap="round" stroke-linejoin="round"/>
</svg>
