<svg width="32" height="32" viewBox="0 0 32 32" fill="none" xmlns="http://www.w3.org/2000/svg">
<path d="M22.3333 17.812V22.7413H19.476V18.1413C19.476 16.9867 19.0627 16.1987 18.028 16.1987C17.2387 16.1987 16.768 16.7293 16.5613 17.244C16.4867 17.428 16.4667 17.684 16.4667 17.94V22.7413H13.608C13.608 22.7413 13.6467 14.952 13.608 14.1453H16.4667V15.3627L16.448 15.3907H16.4667V15.364C16.8467 14.7773 17.524 13.9427 19.0427 13.9427C20.9227 13.9427 22.3333 15.172 22.3333 17.812ZM10.6173 9.99999C9.64 9.99999 9 10.6427 9 11.4853C9 12.312 9.62133 12.972 10.58 12.972H10.5987C11.596 12.972 12.216 12.3107 12.216 11.4853C12.1973 10.6427 11.596 9.99999 10.6173 9.99999ZM9.16933 22.7413H12.028V14.1453H9.16933V22.7413Z" fill="#8B8B98"/>
<path d="M16.5 27.3C19.6296 27.3 22.6309 26.0568 24.8439 23.8439C27.0568 21.6309 28.3 18.6295 28.3 15.5C28.3 12.3704 27.0568 9.36906 24.8439 7.15613C22.6309 4.9432 19.6296 3.69999 16.5 3.69999C13.3704 3.69999 10.3691 4.9432 8.15614 7.15613C5.94321 9.36906 4.7 12.3704 4.7 15.5C4.7 18.6295 5.94321 21.6309 8.15614 23.8439C10.3691 26.0568 13.3704 27.3 16.5 27.3ZM16.5 29.8C8.60211 29.8 2.2 23.3979 2.2 15.5C2.2 7.6021 8.60211 1.19999 16.5 1.19999C24.3979 1.19999 30.8 7.6021 30.8 15.5C30.8 23.3979 24.3979 29.8 16.5 29.8Z" fill="#8B8B98" stroke="url(#paint0_linear_11_231)" stroke-width="0.4"/>
<defs>
<linearGradient id="paint0_linear_11_231" x1="3.40972" y1="0.291986" x2="18.1061" y2="18.0266" gradientUnits="userSpaceOnUse">
<stop stop-color="#2C2C45"/>
<stop offset="1" stop-color="#232339"/>
</linearGradient>
</defs>
</svg>
