<svg width="16" height="16" viewBox="0 0 16 16" fill="none" xmlns="http://www.w3.org/2000/svg">
<path d="M7.5458 13.7197C6.7516 13.0423 6.01545 12.2996 5.34505 11.4994C4.33899 10.2978 3.14429 8.50829 3.14429 6.80302C3.1434 5.02201 4.2159 3.41598 5.86132 2.73438C7.50675 2.05278 9.40077 2.42995 10.6596 3.68989C11.4873 4.51398 11.951 5.63498 11.9473 6.80302C11.9473 8.50829 10.7526 10.2978 9.74656 11.4994C9.07616 12.2996 8.34001 13.0423 7.5458 13.7197ZM7.5458 4.91666C6.87187 4.91666 6.24913 5.27619 5.91217 5.85984C5.5752 6.44348 5.5752 7.16256 5.91217 7.7462C6.24913 8.32984 6.87187 8.68938 7.5458 8.68938C8.58762 8.68938 9.43217 7.84483 9.43217 6.80302C9.43217 5.76121 8.58762 4.91666 7.5458 4.91666Z" fill="#79819A"/>
</svg>
