<svg width="32" height="32" viewBox="0 0 32 32" fill="none" xmlns="http://www.w3.org/2000/svg">
<g clip-path="url(#clip0_12_278)">
<rect width="32" height="32" transform="translate(31.9998 0.000366211) rotate(90)" fill="#232339"/>
<path fill-rule="evenodd" clip-rule="evenodd" d="M15.9998 2.00037C12.2867 2.00037 8.72577 3.47536 6.10026 6.10087C3.47475 8.72638 1.99976 12.2873 1.99976 16.0004C1.99976 19.7134 3.47475 23.2744 6.10026 25.8999C8.72577 28.5254 12.2867 30.0004 15.9998 30.0004C19.7128 30.0004 23.2737 28.5254 25.8993 25.8999C28.5248 23.2744 29.9998 19.7134 29.9998 16.0004C29.9998 12.2873 28.5248 8.72638 25.8993 6.10087C23.2737 3.47536 19.7128 2.00037 15.9998 2.00037V2.00037ZM15.9998 32.0004C11.7563 32.0004 7.68663 30.3147 4.68605 27.3141C1.68546 24.3135 -0.000244141 20.2438 -0.000244141 16.0004C-0.000244141 11.7569 1.68546 7.68724 4.68605 4.68666C7.68663 1.68608 11.7563 0.000366211 15.9998 0.000366211C20.2432 0.000366211 24.3129 1.68608 27.3135 4.68666C30.314 7.68724 31.9998 11.7569 31.9998 16.0004C31.9998 20.2438 30.314 24.3135 27.3135 27.3141C24.3129 30.3147 20.2432 32.0004 15.9998 32.0004V32.0004ZM22.9998 17.0004C23.265 17.0004 23.5193 16.895 23.7069 16.7075C23.8944 16.5199 23.9998 16.2656 23.9998 16.0004C23.9998 15.7351 23.8944 15.4808 23.7069 15.2933C23.5193 15.1057 23.265 15.0004 22.9998 15.0004H11.4138L15.7078 10.7084C15.8955 10.5206 16.001 10.2659 16.001 10.0004C16.001 9.73481 15.8955 9.48014 15.7078 9.29237C15.52 9.10459 15.2653 8.9991 14.9998 8.9991C14.7342 8.9991 14.4795 9.10459 14.2918 9.29237L8.29176 15.2924C8.19863 15.3853 8.12474 15.4956 8.07433 15.6171C8.02392 15.7386 7.99797 15.8688 7.99797 16.0004C7.99797 16.1319 8.02392 16.2621 8.07433 16.3836C8.12474 16.5051 8.19863 16.6155 8.29176 16.7084L14.2918 22.7084C14.4795 22.8961 14.7342 23.0016 14.9998 23.0016C15.2653 23.0016 15.52 22.8961 15.7078 22.7084C15.8955 22.5206 16.001 22.2659 16.001 22.0004C16.001 21.7348 15.8955 21.4801 15.7078 21.2924L11.4138 17.0004H22.9998Z" fill="#5B5B6C"/>
</g>
<defs>
<clipPath id="clip0_12_278">
<rect width="32" height="32" fill="white" transform="translate(31.9998 0.000366211) rotate(90)"/>
</clipPath>
</defs>
</svg>
