<svg width="17" height="16" viewBox="0 0 17 16" fill="none" xmlns="http://www.w3.org/2000/svg">
<g clip-path="url(#clip0_3_33)">
<path d="M0.940186 2C0.940186 1.46957 1.1509 0.960859 1.52597 0.585786C1.90104 0.210714 2.40975 0 2.94019 0L14.9402 0C15.4706 0 15.9793 0.210714 16.3544 0.585786C16.7295 0.960859 16.9402 1.46957 16.9402 2V10C16.9402 10.5304 16.7295 11.0391 16.3544 11.4142C15.9793 11.7893 15.4706 12 14.9402 12H12.4402C12.2849 12 12.1318 12.0361 11.993 12.1056C11.8541 12.175 11.7333 12.2758 11.6402 12.4L9.74019 14.933C9.64704 15.0572 9.52625 15.158 9.3874 15.2274C9.24854 15.2969 9.09543 15.333 8.94019 15.333C8.78494 15.333 8.63183 15.2969 8.49297 15.2274C8.35412 15.158 8.23333 15.0572 8.14019 14.933L6.24019 12.4C6.14704 12.2758 6.02625 12.175 5.8874 12.1056C5.74854 12.0361 5.59543 12 5.44019 12H2.94019C2.40975 12 1.90104 11.7893 1.52597 11.4142C1.1509 11.0391 0.940186 10.5304 0.940186 10V2ZM8.13419 4.766C8.06827 4.66762 7.99218 4.57645 7.90719 4.494C7.77354 4.35637 7.6142 4.2463 7.43819 4.17L7.43019 4.166C7.19336 4.05604 6.93529 3.99937 6.67419 4C5.71619 4 4.94019 4.746 4.94019 5.667C4.94019 6.587 5.71619 7.333 6.67419 7.333C7.01719 7.333 7.33619 7.238 7.60519 7.073C7.46819 7.462 7.21519 7.877 6.79519 8.293C6.75562 8.33161 6.72439 8.37792 6.7034 8.42906C6.68241 8.48021 6.67211 8.5351 6.67314 8.59038C6.67417 8.64565 6.68651 8.70013 6.70939 8.75045C6.73227 8.80078 6.76521 8.84589 6.80619 8.883C6.97919 9.043 7.25319 9.038 7.42019 8.873C8.75419 7.544 8.79019 6.115 8.36119 5.167C8.29817 5.02687 8.22217 4.89296 8.13419 4.767V4.766ZM11.9402 7.073C11.8042 7.462 11.5502 7.877 11.1302 8.293C11.0907 8.33168 11.0595 8.37804 11.0386 8.42922C11.0177 8.4804 11.0075 8.53532 11.0086 8.59059C11.0098 8.64587 11.0222 8.70033 11.0452 8.75062C11.0681 8.8009 11.1011 8.84596 11.1422 8.883C11.3142 9.043 11.5882 9.038 11.7552 8.873C13.0892 7.544 13.1252 6.115 12.6972 5.167C12.6338 5.02685 12.5575 4.89293 12.4692 4.767C12.4033 4.66826 12.3272 4.57676 12.2422 4.494C12.1086 4.35635 11.9492 4.24627 11.7732 4.17L11.7652 4.166C11.5287 4.05618 11.271 3.99952 11.0102 4C10.0532 4 9.27619 4.746 9.27619 5.667C9.27619 6.587 10.0532 7.333 11.0102 7.333C11.3532 7.333 11.6722 7.238 11.9412 7.073H11.9402Z" fill="white"/>
</g>
<defs>
<clipPath id="clip0_3_33">
<rect width="16" height="16" fill="white" transform="translate(0.940186)"/>
</clipPath>
</defs>
</svg>
