<svg width="19" height="19" viewBox="0 0 19 19" fill="none" xmlns="http://www.w3.org/2000/svg">
<path d="M9.5 0C4.25308 0 0 4.25308 0 9.5C0 14.7469 4.25308 19 9.5 19C14.7469 19 19 14.7469 19 9.5C19 4.25308 14.7469 0 9.5 0ZM5.73974 5.22226L10.5354 8.46505C10.852 8.69304 11.0661 9.0365 11.1313 9.42112C11.1966 9.80573 11.1079 10.2006 10.8843 10.5203C10.6607 10.84 10.3202 11.0588 9.93657 11.1294C9.55289 11.2 9.15684 11.1167 8.83409 10.8976C8.69229 10.7976 8.5687 10.674 8.4687 10.5322L5.22591 5.73654C5.176 5.66503 5.15284 5.57824 5.1605 5.49137C5.16817 5.4045 5.20616 5.32309 5.26782 5.26143C5.32949 5.19977 5.41089 5.16177 5.49776 5.15411C5.58463 5.14645 5.67143 5.1696 5.74293 5.21952L5.73974 5.22226ZM9.5 17.5385C5.06971 17.5385 1.46154 13.9326 1.46154 9.5C1.45777 8.41886 1.67395 7.34826 2.09692 6.35329C2.51989 5.35832 3.14082 4.45978 3.92195 3.71231C3.98269 3.65175 4.05489 3.60388 4.13433 3.57151C4.21376 3.53914 4.29885 3.5229 4.38462 3.52375C4.47039 3.5246 4.55514 3.54252 4.63392 3.57645C4.7127 3.61039 4.78394 3.65967 4.84347 3.72142C4.90301 3.78317 4.94966 3.85616 4.9807 3.93612C5.01174 4.01609 5.02656 4.10143 5.02427 4.18718C5.02199 4.27293 5.00266 4.35737 4.96742 4.43557C4.93217 4.51377 4.8817 4.58417 4.81897 4.64267C4.16349 5.27005 3.64244 6.02417 3.28747 6.85918C2.9325 7.6942 2.75103 8.59267 2.75409 9.5C2.75409 13.2196 5.78038 16.2459 9.5 16.2459C13.2196 16.2459 16.2459 13.2196 16.2459 9.5C16.2459 5.99825 13.564 3.11125 10.1463 2.78606V5.29808C10.1463 5.46948 10.0782 5.63386 9.95698 5.75506C9.83578 5.87626 9.6714 5.94435 9.5 5.94435C9.3286 5.94435 9.16422 5.87626 9.04302 5.75506C8.92182 5.63386 8.85373 5.46948 8.85373 5.29808V2.10781C8.85373 1.93641 8.92182 1.77203 9.04302 1.65083C9.16422 1.52963 9.3286 1.46154 9.5 1.46154C13.9326 1.46154 17.5385 5.06971 17.5385 9.5C17.5385 13.9303 13.9326 17.5385 9.5 17.5385Z" fill="white"/>
</svg>
